<svg xmlns="http://www.w3.org/2000/svg" width="24" height="24" viewBox="0 0 24 24"><defs><style>.a{fill:rgba(255,255,255,0);stroke:rgba(0,0,0,0);}.b,.d{fill:none;}.b{stroke:#00aeef;stroke-linecap:round;stroke-linejoin:round;stroke-width:2px;}.c{stroke:none;}</style></defs><g transform="translate(-25 -246)"><g class="a" transform="translate(25 246)"><rect class="c" width="24" height="24"/><rect class="d" x="0.5" y="0.5" width="23" height="23"/></g><g transform="translate(-203.5 -1370.5)"><g transform="translate(230.5 1618.5)"><path class="b" d="M247.677,1629.8h1.953a.87.87,0,0,0,.87-.87v-.87a.87.87,0,0,0-.87-.87h-1.954a10.258,10.258,0,0,0-.87-2.541l1.382-1.381a.87.87,0,0,0,0-1.229l-1.233-1.23a.87.87,0,0,0-1.23,0l-1.383,1.382a10.243,10.243,0,0,0-2.539-.87v-1.957a.87.87,0,0,0-.87-.87h-.87a.87.87,0,0,0-.87.87v1.956a10.261,10.261,0,0,0-2.54.87l-1.383-1.38a.87.87,0,0,0-1.23,0l-1.23,1.23a.87.87,0,0,0,0,1.229l1.383,1.382a10.264,10.264,0,0,0-.87,2.54H231.37a.87.87,0,0,0-.87.87v.87a.87.87,0,0,0,.87.87h1.953a10.26,10.26,0,0,0,.87,2.54l-1.383,1.383a.87.87,0,0,0,0,1.23l1.234,1.229a.87.87,0,0,0,1.23,0l1.382-1.383a10.255,10.255,0,0,0,2.541.87v1.957a.87.87,0,0,0,.87.87h.87a.87.87,0,0,0,.87-.87v-1.952a10.248,10.248,0,0,0,2.539-.87l1.383,1.382a.87.87,0,0,0,1.23,0l1.23-1.229a.87.87,0,0,0,0-1.23l-1.382-1.383A10.292,10.292,0,0,0,247.677,1629.8Z" transform="translate(-230.5 -1618.5)"/><path class="b" d="M241.413,1633.326a3.913,3.913,0,1,0-3.913-3.913A3.913,3.913,0,0,0,241.413,1633.326Z" transform="translate(-231.413 -1619.413)"/></g></g></g></svg>